<svg xmlns="http://www.w3.org/2000/svg" width="1440" height="920" viewBox="0 0 1440 920" role="img" aria-label="I Hate PDFs main window screenshot">
  <rect width="1440" height="920" fill="#f5f5f7"/>
  <rect x="40" y="40" width="1360" height="840" rx="10" fill="#fbfbfd" stroke="#c9c9ce"/>
  <rect x="40" y="40" width="1360" height="52" rx="10" fill="#ececf0"/>
  <circle cx="68" cy="66" r="7" fill="#ff5f57"/>
  <circle cx="92" cy="66" r="7" fill="#febc2e"/>
  <circle cx="116" cy="66" r="7" fill="#28c840"/>
  <rect x="64" y="116" width="210" height="724" fill="#f1f1f4"/>
  <rect x="308" y="132" width="650" height="692" fill="#ffffff" stroke="#d1d1d6"/>
  <rect x="358" y="190" width="550" height="14" fill="#d8d8dd"/>
  <rect x="358" y="228" width="480" height="14" fill="#d8d8dd"/>
  <rect x="358" y="266" width="520" height="14" fill="#f7dc55" opacity="0.75"/>
  <rect x="358" y="304" width="470" height="14" fill="#d8d8dd"/>
  <rect x="358" y="342" width="510" height="14" fill="#d8d8dd"/>
  <rect x="996" y="116" width="364" height="724" fill="#f7f7f9"/>
  <text x="1020" y="158" font-family="-apple-system, BlinkMacSystemFont, sans-serif" font-size="24" fill="#202124">Comments</text>
  <rect x="1020" y="190" width="316" height="118" rx="8" fill="#ffffff" stroke="#d5d5da"/>
  <text x="1040" y="226" font-family="-apple-system, BlinkMacSystemFont, sans-serif" font-size="15" fill="#202124">Highlight</text>
  <text x="1040" y="254" font-family="-apple-system, BlinkMacSystemFont, sans-serif" font-size="13" fill="#606166">Discuss this claim in class.</text>
  <rect x="1020" y="326" width="316" height="118" rx="8" fill="#ffffff" stroke="#d5d5da"/>
  <text x="1040" y="362" font-family="-apple-system, BlinkMacSystemFont, sans-serif" font-size="15" fill="#202124">Note</text>
  <text x="1040" y="390" font-family="-apple-system, BlinkMacSystemFont, sans-serif" font-size="13" fill="#606166">Connect to the seminar reading.</text>
</svg>
